<svg width="154" height="154" viewBox="0 0 154 154" fill="none" xmlns="http://www.w3.org/2000/svg">
<path d="M20.0908 118.491C12.7327 107.403 9.26767 88.7967 21.1996 79.221C32.7065 69.981 51.0047 83.6808 61.603 74.102C74.3573 62.5736 54.1217 45.7352 55.6402 32.214C57.3249 17.2114 78.1611 9.52675 91.6761 7.66643C105.585 5.76299 118.525 13.2443 124.703 24.7974C132.486 39.3412 131.932 56.7432 128.304 72.0292C124.136 89.5852 112.694 104.819 100.584 118.599C86.742 134.347 66.0875 140.282 45.0758 136.58C33.7136 134.575 25.9305 127.281 20.0908 118.491Z" fill="#F87D4E"/>
<path opacity="0.7" d="M20.0908 118.491C12.7327 107.403 9.26767 88.7967 21.1996 79.221C32.7065 69.981 51.0047 83.6808 61.603 74.102C74.3573 62.5736 54.1217 45.7352 55.6402 32.214C57.3249 17.2114 78.1611 9.52675 91.6761 7.66643C105.585 5.76299 118.525 13.2443 124.703 24.7974C132.486 39.3412 131.932 56.7432 128.304 72.0292C124.136 89.5852 112.694 104.819 100.584 118.599C86.742 134.347 66.0875 140.282 45.0758 136.58C33.7136 134.575 25.9305 127.281 20.0908 118.491Z" fill="white"/>
<path d="M115.582 109.174V103.682H126.827" stroke="#263238" stroke-width="0.8" stroke-linecap="round" stroke-linejoin="round"/>
<path d="M105.588 98.4863V109.174H113.233" stroke="#263238" stroke-width="0.8" stroke-linecap="round" stroke-linejoin="round"/>
<path d="M105.588 95.6445V96.9183" stroke="#263238" stroke-width="0.8" stroke-linecap="round" stroke-linejoin="round"/>
<path d="M85.2246 110.914L90.5295 115.056V91.4434H105.588V93.5874" stroke="#263238" stroke-width="0.8" stroke-linecap="round" stroke-linejoin="round"/>
<path d="M66.0293 76.1984L67.3279 75.748V92.7983L76.501 97.3213V114.25L82.9995 109.174L83.9444 109.912" stroke="#263238" stroke-width="0.8" stroke-linecap="round" stroke-linejoin="round"/>
<path d="M63.1367 77.1974L64.4878 76.7305" stroke="#263238" stroke-width="0.8" stroke-linecap="round" stroke-linejoin="round"/>
<path d="M44.8887 97.91H55.4045V79.8651L61.3643 77.8066" stroke="#263238" stroke-width="0.8" stroke-linecap="round" stroke-linejoin="round"/>
<path d="M129.442 103.682H130.638V132.79H116.882H115.58H105.586H101.821H90.5283H76.4979H75.4673H67.3249H64.5757H56.3531H55.4026H41.2949V97.9102H43.1627" stroke="#263238" stroke-width="0.8" stroke-linecap="round" stroke-linejoin="round"/>
<path d="M111.504 122.01V132.791H123.111V115.352" stroke="#263238" stroke-width="0.8" stroke-linecap="round" stroke-linejoin="round"/>
<path d="M123.111 113.383H111.504V119.658" stroke="#263238" stroke-width="0.8" stroke-linecap="round" stroke-linejoin="round"/>
<path d="M17.4004 101.378V92.5088L32.1464 88.9805V90.5001" stroke="#263238" stroke-width="0.8" stroke-linecap="round" stroke-linejoin="round"/>
<path d="M17.4004 105.419V103.143" stroke="#263238" stroke-width="0.8" stroke-linecap="round" stroke-linejoin="round"/>
<path d="M32.1455 92.3379V132.791H20.204H17.3996H7.9668V107.799H17.3996" stroke="#263238" stroke-width="0.8" stroke-linecap="round" stroke-linejoin="round"/>
<path d="M29.6158 114.25V110.885H28.3145" stroke="#263238" stroke-width="0.8" stroke-linecap="round" stroke-linejoin="round"/>
<path d="M26.3258 110.885H20.0566V132.79H29.6138V116.764" stroke="#263238" stroke-width="0.8" stroke-linecap="round" stroke-linejoin="round"/>
<path d="M19.2441 101.363V103.444C19.2441 103.52 19.306 103.582 19.3823 103.582H21.6203C21.6966 103.582 21.7584 103.52 21.7584 103.444V101.363C21.7584 101.287 21.6966 101.225 21.6203 101.225H19.3823C19.306 101.225 19.2441 101.287 19.2441 101.363Z" stroke="#263238" stroke-width="0.8" stroke-linecap="round" stroke-linejoin="round"/>
<path d="M23.2051 104.785V106.866C23.2051 106.942 23.2669 107.004 23.3432 107.004H25.5812C25.6575 107.004 25.7194 106.942 25.7194 106.866V104.785C25.7194 104.709 25.6575 104.647 25.5812 104.647H23.3432C23.2669 104.647 23.2051 104.709 23.2051 104.785Z" stroke="#263238" stroke-width="0.8" stroke-linecap="round" stroke-linejoin="round"/>
<path d="M23.2051 97.9376V100.018C23.2051 100.094 23.2669 100.156 23.3432 100.156H25.5812C25.6575 100.156 25.7194 100.094 25.7194 100.018V97.9376C25.7194 97.8613 25.6575 97.7994 25.5812 97.7994H23.3432C23.2669 97.7994 23.2051 97.8613 23.2051 97.9376Z" stroke="#263238" stroke-width="0.8" stroke-linecap="round" stroke-linejoin="round"/>
<path d="M23.2051 94.5157V96.5962C23.2051 96.6725 23.2669 96.7344 23.3432 96.7344H25.5812C25.6575 96.7344 25.7194 96.6725 25.7194 96.5962V94.5157C25.7194 94.4394 25.6575 94.3776 25.5812 94.3776H23.3432C23.2669 94.3776 23.2051 94.4394 23.2051 94.5157Z" stroke="#263238" stroke-width="0.8" stroke-linecap="round" stroke-linejoin="round"/>
<path d="M27.166 104.783V106.864C27.166 106.94 27.2279 107.002 27.3042 107.002H29.5422C29.6185 107.002 29.6803 106.94 29.6803 106.864V104.783C29.6803 104.707 29.6185 104.645 29.5422 104.645H27.3042C27.2279 104.645 27.166 104.707 27.166 104.783Z" stroke="#263238" stroke-width="0.8" stroke-linecap="round" stroke-linejoin="round"/>
<path d="M27.166 97.9337V100.014C27.166 100.09 27.2279 100.152 27.3042 100.152H29.5422C29.6185 100.152 29.6803 100.09 29.6803 100.014V97.9337C29.6803 97.8574 29.6185 97.7955 29.5422 97.7955H27.3042C27.2279 97.7955 27.166 97.8574 27.166 97.9337Z" stroke="#263238" stroke-width="0.8" stroke-linecap="round" stroke-linejoin="round"/>
<path d="M119.732 129.146V130.754C119.732 130.831 119.794 130.893 119.871 130.893H121.606C121.682 130.893 121.744 130.831 121.744 130.754V129.146C121.744 129.07 121.682 129.008 121.606 129.008H119.871C119.794 129.008 119.732 129.07 119.732 129.146Z" stroke="#263238" stroke-width="0.8" stroke-linecap="round" stroke-linejoin="round"/>
<path d="M119.732 126.41V128.018C119.732 128.094 119.794 128.156 119.871 128.156H121.606C121.682 128.156 121.744 128.094 121.744 128.018V126.41C121.744 126.334 121.682 126.272 121.606 126.272H119.871C119.794 126.272 119.732 126.334 119.732 126.41Z" stroke="#263238" stroke-width="0.8" stroke-linecap="round" stroke-linejoin="round"/>
<path d="M119.732 118.197V119.805C119.732 119.882 119.794 119.943 119.871 119.943H121.606C121.682 119.943 121.744 119.882 121.744 119.805V118.197C121.744 118.121 121.682 118.059 121.606 118.059H119.871C119.794 118.059 119.732 118.121 119.732 118.197Z" stroke="#263238" stroke-width="0.8" stroke-linecap="round" stroke-linejoin="round"/>
<path d="M113.396 129.148V130.756C113.396 130.833 113.458 130.895 113.535 130.895H115.27C115.346 130.895 115.408 130.833 115.408 130.756V129.148C115.408 129.072 115.346 129.01 115.27 129.01H113.535C113.458 129.01 113.396 129.072 113.396 129.148Z" stroke="#263238" stroke-width="0.8" stroke-linecap="round" stroke-linejoin="round"/>
<path d="M113.396 123.674V125.282C113.396 125.358 113.458 125.42 113.535 125.42H115.27C115.346 125.42 115.408 125.358 115.408 125.282V123.674C115.408 123.597 115.346 123.536 115.27 123.536H113.535C113.458 123.536 113.396 123.597 113.396 123.674Z" stroke="#263238" stroke-width="0.8" stroke-linecap="round" stroke-linejoin="round"/>
<path d="M119.732 120.933V122.542C119.732 122.618 119.794 122.68 119.871 122.68H121.606C121.682 122.68 121.744 122.618 121.744 122.542V120.933C121.744 120.857 121.682 120.795 121.606 120.795H119.871C119.794 120.795 119.732 120.857 119.732 120.933Z" stroke="#263238" stroke-width="0.8" stroke-linecap="round" stroke-linejoin="round"/>
<path d="M116.562 126.41V128.018C116.562 128.094 116.624 128.156 116.701 128.156H118.436C118.512 128.156 118.574 128.094 118.574 128.018V126.41C118.574 126.334 118.512 126.272 118.436 126.272H116.701C116.624 126.272 116.562 126.334 116.562 126.41Z" stroke="#263238" stroke-width="0.8" stroke-linecap="round" stroke-linejoin="round"/>
<path d="M116.562 118.197V119.805C116.562 119.882 116.624 119.943 116.701 119.943H118.436C118.512 119.943 118.574 119.882 118.574 119.805V118.197C118.574 118.121 118.512 118.059 118.436 118.059H116.701C116.624 118.059 116.562 118.121 116.562 118.197Z" stroke="#263238" stroke-width="0.8" stroke-linecap="round" stroke-linejoin="round"/>
<path d="M113.396 115.461V117.069C113.396 117.145 113.458 117.207 113.535 117.207H115.27C115.346 117.207 115.408 117.145 115.408 117.069V115.461C115.408 115.385 115.346 115.323 115.27 115.323H113.535C113.458 115.323 113.396 115.385 113.396 115.461Z" stroke="#263238" stroke-width="0.8" stroke-linecap="round" stroke-linejoin="round"/>
<path d="M19.8171 29.898C19.8171 29.898 19.6231 23.6825 25.6691 22.8571C31.8907 22.0101 32.827 28.7245 32.827 28.7245" stroke="#263238" stroke-width="0.8" stroke-linecap="round" stroke-linejoin="round"/>
<path d="M16.8848 30.3412C17.275 30.2057 17.6757 30.1027 18.0829 30.0332" stroke="#263238" stroke-width="0.8" stroke-linecap="round" stroke-linejoin="round"/>
<path d="M13.0137 36.5415C13.0137 33.1966 14.4921 31.5272 16.0721 30.6895" stroke="#263238" stroke-width="0.8" stroke-linecap="round" stroke-linejoin="round"/>
<path d="M31.9056 42.6866C27.2486 42.6866 14.7192 44.7071 13.1699 38.002" stroke="#263238" stroke-width="0.8" stroke-linecap="round" stroke-linejoin="round"/>
<path d="M34.8916 42.7761L34.0508 42.7422" stroke="#263238" stroke-width="0.8" stroke-linecap="round" stroke-linejoin="round"/>
<path d="M43.2861 35.05C45.0448 35.0038 47.98 35.4319 47.98 38.8138C47.98 43.058 41.0161 43.0149 35.7031 42.8178" stroke="#263238" stroke-width="0.8" stroke-linecap="round" stroke-linejoin="round"/>
<path d="M34.3516 28.2603C37.2591 27.5396 43.2497 26.9914 41.9961 35.178" stroke="#263238" stroke-width="0.8" stroke-linecap="round" stroke-linejoin="round"/>
<path d="M110.11 35.2669C110.11 35.2669 109.993 31.5309 113.639 31.035C117.379 30.5237 117.951 34.5616 117.951 34.5616" stroke="#263238" stroke-width="0.8" stroke-linecap="round" stroke-linejoin="round"/>
<path d="M108.346 35.5347C108.58 35.4519 108.821 35.3881 109.066 35.3438" stroke="#263238" stroke-width="0.8" stroke-linecap="round" stroke-linejoin="round"/>
<path d="M106.018 39.2643C106.018 37.253 106.908 36.249 107.866 35.75" stroke="#263238" stroke-width="0.8" stroke-linecap="round" stroke-linejoin="round"/>
<path d="M117.38 42.9608C114.58 42.9608 107.043 44.1743 106.113 40.1426" stroke="#263238" stroke-width="0.8" stroke-linecap="round" stroke-linejoin="round"/>
<path d="M119.175 43.0118L118.67 42.9902" stroke="#263238" stroke-width="0.8" stroke-linecap="round" stroke-linejoin="round"/>
<path d="M124.224 38.3675C125.283 38.3367 127.048 38.5954 127.048 40.6313C127.048 43.1815 122.859 43.1569 119.656 43.0306" stroke="#263238" stroke-width="0.8" stroke-linecap="round" stroke-linejoin="round"/>
<path d="M118.852 34.2842C120.598 33.8499 124.202 33.5204 123.447 38.4422" stroke="#263238" stroke-width="0.8" stroke-linecap="round" stroke-linejoin="round"/>
<path d="M121.535 115.658C121.535 115.658 123.06 114.195 122.459 112.821C121.859 111.447 120.657 111.958 120.657 111.958C120.657 111.958 122.351 109.802 120.965 108.986C119.579 108.17 118.446 109.498 118.446 109.498C118.446 109.498 119.678 106.544 118.12 106.14C117.694 106.021 117.24 106.047 116.83 106.214C116.421 106.381 116.079 106.681 115.859 107.064C115.859 107.064 116.635 103.904 115.341 103.904C114.048 103.904 113.617 105.854 113.617 105.854C113.617 105.854 112.84 103.886 111.633 104.209C110.426 104.533 111.202 106.824 111.202 106.824C111.202 106.824 109.853 105.361 108.818 106.005C108.236 106.368 108.408 107.012 108.667 107.511C108.523 107.544 108.383 107.59 108.248 107.65C108.114 107.589 107.973 107.543 107.829 107.511C108.091 107.012 108.26 106.368 107.681 106.005C106.647 105.361 105.294 106.824 105.294 106.824C105.294 106.824 106.071 104.533 104.863 104.209C103.656 103.886 102.88 105.854 102.88 105.854C102.88 105.854 102.448 103.904 101.155 103.904C99.8613 103.904 100.631 107.074 100.631 107.074C100.45 106.76 100.187 106.502 99.8713 106.326C99.5552 106.15 99.1974 106.062 98.8356 106.073C98.811 106.054 98.7925 106.033 98.7648 106.014C97.7299 105.37 96.3809 106.833 96.3809 106.833C96.3809 106.833 97.157 104.542 95.9497 104.218C94.7423 103.895 93.9661 105.863 93.9661 105.863C93.9661 105.863 93.8584 104.831 92.5648 104.831C91.2712 104.831 91.7239 107.074 91.7239 107.074C91.5034 106.69 91.1614 106.391 90.752 106.224C90.3426 106.057 89.8891 106.03 89.4632 106.15C87.9232 106.553 89.1367 109.507 89.1367 109.507C89.1367 109.507 87.9971 108.189 86.6173 108.996C85.2374 109.802 86.9253 111.968 86.9253 111.968C86.9253 111.968 85.7272 111.456 85.1235 112.83C84.5198 114.204 86.0475 115.667 86.0475 115.667C81.8987 117.336 86.9715 120.013 86.9715 120.013H120.605C120.605 120.013 125.684 117.327 121.535 115.658Z" fill="#F87D4E"/>
<path d="M76.5002 120.003C76.5002 120.003 71.4243 117.327 75.5762 115.658C75.5762 115.658 74.0546 114.195 74.6522 112.821C75.2497 111.447 76.4509 111.958 76.4509 111.958C76.4509 111.958 74.7569 109.802 76.1429 108.986C77.5289 108.17 78.6623 109.498 78.6623 109.498C78.6623 109.498 77.4303 106.544 78.9888 106.14C79.4147 106.021 79.8684 106.047 80.2779 106.214C80.6874 106.381 81.0294 106.681 81.2495 107.064C81.2495 107.064 80.4734 103.904 81.767 103.904C83.0606 103.904 83.4918 105.854 83.4918 105.854C83.4918 105.854 84.2679 103.886 85.4753 104.209C86.6827 104.533 85.9065 106.824 85.9065 106.824C85.9065 106.824 87.2555 105.361 88.2904 106.005C89.3253 106.649 87.9824 108.198 87.9824 108.198C87.9824 108.198 89.5224 106.886 90.3879 107.776C91.2534 108.666 89.3622 110.135 89.3622 110.135C89.3622 110.135 90.9023 109.698 91.3365 110.751C91.7708 111.804 90.2924 112.581 90.2924 112.581C90.2924 112.581 91.2164 112.51 91.7031 113.723C92.1897 114.937 90.0984 115.168 90.0984 115.168C90.0984 115.168 91.5675 114.971 91.7431 116.021C91.9187 117.071 90.1846 117.493 90.1846 117.493C90.1846 117.493 91.2287 117.345 91.4012 118.22C91.5737 119.095 89.5347 119.997 89.5347 119.997L76.5002 120.003Z" fill="#F87D4E"/>
<path d="M110.761 120.003C110.761 120.003 116.031 117.327 112.027 115.658C112.027 115.658 113.66 114.195 113.157 112.821C113.111 112.643 113.027 112.478 112.911 112.335C112.795 112.193 112.649 112.077 112.485 111.995C112.32 111.913 112.14 111.868 111.957 111.862C111.773 111.855 111.59 111.888 111.42 111.958C111.42 111.958 113.268 109.802 111.959 108.986C110.65 108.17 109.4 109.498 109.4 109.498C109.4 109.498 110.847 106.544 109.326 106.14C107.804 105.737 106.994 107.064 106.994 107.064C106.994 107.064 108.008 103.904 106.714 103.904C105.42 103.904 104.845 105.854 104.845 105.854C104.845 105.854 104.213 103.886 102.981 104.209C101.749 104.533 102.365 106.824 102.365 106.824C102.365 106.824 101.133 105.361 100.04 106.005C98.9463 106.649 100.194 108.198 100.194 108.198C100.194 108.198 98.7492 106.886 97.8191 107.776C96.8889 108.666 98.6691 110.135 98.6691 110.135C98.6691 110.135 97.1599 109.698 96.6487 110.751C96.1374 111.804 97.5573 112.581 97.5573 112.581C97.5573 112.581 96.6333 112.51 96.0604 113.723C95.4875 114.937 97.5542 115.168 97.5542 115.168C97.5542 115.168 96.1004 114.971 95.8479 116.021C95.5953 117.071 97.2955 117.493 97.2955 117.493C97.2955 117.493 96.2637 117.345 96.0265 118.22C95.7893 119.095 97.7605 119.997 97.7605 119.997L110.761 120.003Z" fill="#F87D4E"/>
<path opacity="0.4" d="M76.5002 120.003C76.5002 120.003 71.4243 117.327 75.5762 115.658C75.5762 115.658 74.0546 114.195 74.6522 112.821C75.2497 111.447 76.4509 111.958 76.4509 111.958C76.4509 111.958 74.7569 109.802 76.1429 108.986C77.5289 108.17 78.6623 109.498 78.6623 109.498C78.6623 109.498 77.4303 106.544 78.9888 106.14C79.4147 106.021 79.8684 106.047 80.2779 106.214C80.6874 106.381 81.0294 106.681 81.2495 107.064C81.2495 107.064 80.4734 103.904 81.767 103.904C83.0606 103.904 83.4918 105.854 83.4918 105.854C83.4918 105.854 84.2679 103.886 85.4753 104.209C86.6827 104.533 85.9065 106.824 85.9065 106.824C85.9065 106.824 87.2555 105.361 88.2904 106.005C89.3253 106.649 87.9824 108.198 87.9824 108.198C87.9824 108.198 89.5224 106.886 90.3879 107.776C91.2534 108.666 89.3622 110.135 89.3622 110.135C89.3622 110.135 90.9023 109.698 91.3365 110.751C91.7708 111.804 90.2924 112.581 90.2924 112.581C90.2924 112.581 91.2164 112.51 91.7031 113.723C92.1897 114.937 90.0984 115.168 90.0984 115.168C90.0984 115.168 91.5675 114.971 91.7431 116.021C91.9187 117.071 90.1846 117.493 90.1846 117.493C90.1846 117.493 91.2287 117.345 91.4012 118.22C91.5737 119.095 89.5347 119.997 89.5347 119.997L76.5002 120.003Z" fill="white"/>
<path opacity="0.4" d="M110.761 120.003C110.761 120.003 116.031 117.327 112.027 115.658C112.027 115.658 113.66 114.195 113.157 112.821C113.111 112.643 113.027 112.478 112.911 112.335C112.795 112.193 112.649 112.077 112.485 111.995C112.32 111.913 112.14 111.868 111.957 111.862C111.773 111.855 111.59 111.888 111.42 111.958C111.42 111.958 113.268 109.802 111.959 108.986C110.65 108.17 109.4 109.498 109.4 109.498C109.4 109.498 110.847 106.544 109.326 106.14C107.804 105.737 106.994 107.064 106.994 107.064C106.994 107.064 108.008 103.904 106.714 103.904C105.42 103.904 104.845 105.854 104.845 105.854C104.845 105.854 104.213 103.886 102.981 104.209C101.749 104.533 102.365 106.824 102.365 106.824C102.365 106.824 101.133 105.361 100.04 106.005C98.9463 106.649 100.194 108.198 100.194 108.198C100.194 108.198 98.7492 106.886 97.8191 107.776C96.8889 108.666 98.6691 110.135 98.6691 110.135C98.6691 110.135 97.1599 109.698 96.6487 110.751C96.1374 111.804 97.5573 112.581 97.5573 112.581C97.5573 112.581 96.6333 112.51 96.0604 113.723C95.4875 114.937 97.5542 115.168 97.5542 115.168C97.5542 115.168 96.1004 114.971 95.8479 116.021C95.5953 117.071 97.2955 117.493 97.2955 117.493C97.2955 117.493 96.2637 117.345 96.0265 118.22C95.7893 119.095 97.7605 119.997 97.7605 119.997L110.761 120.003Z" fill="white"/>
<path d="M120.992 132.791H76.1568C75.9207 132.789 75.6924 132.706 75.5098 132.557C75.3272 132.407 75.2012 132.2 75.1527 131.969L73.3047 120.523H123.854L122.006 131.969C121.957 132.201 121.829 132.41 121.645 132.56C121.46 132.71 121.23 132.791 120.992 132.791Z" fill="#999999" stroke="#263238" stroke-width="0.5" stroke-linecap="round" stroke-linejoin="round"/>
<path d="M124.28 121.871H72.8713C72.6711 121.863 72.4795 121.788 72.3278 121.657C72.1762 121.526 72.0735 121.347 72.0366 121.15L71.821 119.894C71.8029 119.805 71.8046 119.713 71.8261 119.624C71.8477 119.536 71.8884 119.454 71.9455 119.383C72.0026 119.312 72.0747 119.255 72.1564 119.216C72.2382 119.176 72.3277 119.155 72.4186 119.154H124.732C124.823 119.155 124.913 119.176 124.995 119.216C125.076 119.255 125.148 119.312 125.205 119.383C125.263 119.454 125.303 119.536 125.325 119.624C125.346 119.713 125.348 119.805 125.33 119.894L125.114 121.15C125.077 121.347 124.975 121.526 124.823 121.657C124.671 121.788 124.48 121.863 124.28 121.871Z" fill="#999999" stroke="#263238" stroke-width="0.5" stroke-linecap="round" stroke-linejoin="round"/>
<path d="M6.9082 132.789H135.818" stroke="#263238" stroke-width="0.5" stroke-linecap="round" stroke-linejoin="round"/>
<path d="M83.9578 98.3846C79.2762 98.3846 75.4785 84.7741 75.4785 67.9881C75.4785 51.2021 79.2762 37.5762 83.9578 37.5762H99.1945C103.876 37.5762 107.671 51.1867 107.671 67.9758C107.671 84.7649 103.876 98.3723 99.1945 98.3723L83.9578 98.3846Z" fill="#F87D4E"/>
<g opacity="0.2">
<path d="M99.3453 37.5762C94.6637 37.5762 90.8691 51.1867 90.8691 67.9758C90.8691 84.7649 94.6637 98.3723 99.3453 98.3723C104.027 98.3723 107.825 84.7618 107.825 67.9758C107.825 51.1898 104.027 37.5762 99.3453 37.5762Z" fill="black"/>
</g>
<path d="M83.9578 98.3846C79.2762 98.3846 75.4785 84.7741 75.4785 67.9881C75.4785 51.2021 79.2762 37.5762 83.9578 37.5762H99.1945C103.876 37.5762 107.671 51.1867 107.671 67.9758C107.671 84.7649 103.876 98.3723 99.1945 98.3723L83.9578 98.3846Z" stroke="#263238" stroke-width="0.8" stroke-linecap="round" stroke-linejoin="round"/>
<path d="M99.1949 98.3871C103.876 98.3871 107.671 84.7767 107.671 67.9875C107.671 51.1983 103.876 37.5879 99.1949 37.5879C94.5137 37.5879 90.7188 51.1983 90.7188 67.9875C90.7188 84.7767 94.5137 98.3871 99.1949 98.3871Z" stroke="#263238" stroke-width="0.8" stroke-linecap="round" stroke-linejoin="round"/>
<path d="M99.1941 37.5762C94.5125 37.5762 90.7148 51.1867 90.7148 67.9758C90.7148 84.7649 94.5125 98.3723 99.1941 98.3723C103.876 98.3723 107.67 84.7618 107.67 67.9758C107.67 51.1898 103.876 37.5762 99.1941 37.5762ZM99.1756 97.0202C98.0422 97.0202 96.1418 94.9689 94.5217 89.1939C92.9602 83.6253 92.1008 76.1963 92.1008 68.2776C92.1008 50.7216 96.2927 39.5351 99.1848 39.5351C100.321 39.5351 102.219 41.5833 103.839 47.3583C105.4 52.9269 106.26 60.3559 106.26 68.2776C106.235 85.8182 102.046 97.0202 99.1756 97.0202Z" stroke="#263238" stroke-width="0.8" stroke-linecap="round" stroke-linejoin="round"/>
<g opacity="0.7">
<path d="M84.8046 45.5009C84.8046 45.7263 84.7377 45.9467 84.6125 46.1341C84.4873 46.3215 84.3093 46.4675 84.1011 46.5538C83.8929 46.64 83.6637 46.6626 83.4427 46.6186C83.2216 46.5747 83.0185 46.4661 82.8592 46.3067C82.6998 46.1474 82.5913 45.9443 82.5473 45.7233C82.5033 45.5022 82.5259 45.2731 82.6121 45.0648C82.6984 44.8566 82.8445 44.6786 83.0319 44.5534C83.2193 44.4282 83.4396 44.3613 83.665 44.3613C83.9672 44.3613 84.2571 44.4814 84.4708 44.6951C84.6845 44.9088 84.8046 45.1987 84.8046 45.5009Z" fill="white"/>
<path d="M89.9882 45.5009C89.9882 45.7263 89.9214 45.9467 89.7961 46.1341C89.6709 46.3215 89.4929 46.4675 89.2847 46.5538C89.0765 46.64 88.8473 46.6626 88.6263 46.6186C88.4052 46.5747 88.2021 46.4661 88.0428 46.3067C87.8834 46.1474 87.7749 45.9443 87.7309 45.7233C87.6869 45.5022 87.7095 45.2731 87.7957 45.0648C87.882 44.8566 88.0281 44.6786 88.2155 44.5534C88.4029 44.4282 88.6232 44.3613 88.8486 44.3613C89.1508 44.3613 89.4407 44.4814 89.6544 44.6951C89.8681 44.9088 89.9882 45.1987 89.9882 45.5009Z" fill="white"/>
<path d="M81.5276 49.0244C81.5282 49.2506 81.4616 49.472 81.3363 49.6604C81.2109 49.8488 81.0325 49.9957 80.8236 50.0826C80.6146 50.1694 80.3846 50.1923 80.1627 50.1483C79.9408 50.1043 79.7369 49.9954 79.5769 49.8354C79.4169 49.6755 79.308 49.4716 79.264 49.2496C79.22 49.0277 79.2429 48.7977 79.3298 48.5887C79.4166 48.3798 79.5636 48.2014 79.752 48.0761C79.9403 47.9507 80.1617 47.8842 80.3879 47.8848C80.6902 47.8848 80.9801 48.0048 81.1938 48.2186C81.4075 48.4323 81.5276 48.7221 81.5276 49.0244Z" fill="white"/>
<path d="M86.0272 49.0244C86.0272 49.2498 85.9604 49.4701 85.8352 49.6575C85.71 49.8449 85.532 49.991 85.3238 50.0772C85.1155 50.1635 84.8864 50.186 84.6653 50.1421C84.4443 50.0981 84.2412 49.9896 84.0818 49.8302C83.9225 49.6708 83.8139 49.4677 83.7699 49.2467C83.726 49.0256 83.7485 48.7965 83.8348 48.5883C83.921 48.38 84.0671 48.202 84.2545 48.0768C84.4419 47.9516 84.6622 47.8848 84.8876 47.8848C85.1899 47.8848 85.4797 48.0048 85.6935 48.2185C85.9072 48.4323 86.0272 48.7221 86.0272 49.0244Z" fill="white"/>
<path d="M90.5273 49.0244C90.5273 49.2498 90.4604 49.4701 90.3352 49.6575C90.21 49.8449 90.032 49.991 89.8238 50.0772C89.6155 50.1635 89.3864 50.186 89.1653 50.1421C88.9443 50.0981 88.7412 49.9896 88.5818 49.8302C88.4225 49.6708 88.3139 49.4677 88.2699 49.2467C88.226 49.0256 88.2485 48.7965 88.3348 48.5883C88.421 48.38 88.5671 48.202 88.7545 48.0768C88.9419 47.9516 89.1623 47.8848 89.3876 47.8848C89.6899 47.8848 89.9798 48.0048 90.1935 48.2185C90.4072 48.4323 90.5273 48.7221 90.5273 49.0244Z" fill="white"/>
<path d="M84.1213 41.9775C84.1219 42.2036 84.0554 42.4248 83.9302 42.6132C83.805 42.8015 83.6268 42.9484 83.418 43.0354C83.2093 43.1223 82.9794 43.1454 82.7576 43.1017C82.5357 43.0579 82.3318 42.9493 82.1717 42.7897C82.0116 42.63 81.9025 42.4264 81.8581 42.2046C81.8138 41.9829 81.8362 41.753 81.9226 41.544C82.009 41.335 82.1555 41.1564 82.3435 41.0307C82.5314 40.905 82.7525 40.8379 82.9786 40.8379C83.2811 40.8379 83.5713 40.9579 83.7855 41.1715C83.9997 41.3851 84.1205 41.675 84.1213 41.9775Z" fill="white"/>
<path d="M88.6213 41.9775C88.6219 42.2038 88.5553 42.4251 88.43 42.6135C88.3047 42.8019 88.1262 42.9488 87.9173 43.0357C87.7084 43.1225 87.4784 43.1454 87.2564 43.1014C87.0345 43.0575 86.8306 42.9486 86.6706 42.7886C86.5106 42.6286 86.4017 42.4247 86.3577 42.2027C86.3138 41.9808 86.3366 41.7508 86.4235 41.5419C86.5104 41.3329 86.6573 41.1545 86.8457 41.0292C87.0341 40.9039 87.2554 40.8373 87.4817 40.8379C87.7839 40.8379 88.0738 40.958 88.2875 41.1717C88.5012 41.3854 88.6213 41.6753 88.6213 41.9775Z" fill="white"/>
<path d="M93.121 41.9775C93.121 42.2029 93.0542 42.4232 92.9289 42.6106C92.8037 42.798 92.6257 42.9441 92.4175 43.0303C92.2093 43.1166 91.9801 43.1392 91.7591 43.0952C91.538 43.0512 91.335 42.9427 91.1756 42.7833C91.0162 42.6239 90.9077 42.4209 90.8637 42.1998C90.8197 41.9788 90.8423 41.7496 90.9285 41.5414C91.0148 41.3332 91.1609 41.1552 91.3483 41.0299C91.5357 40.9047 91.756 40.8379 91.9814 40.8379C92.2836 40.8379 92.5735 40.958 92.7872 41.1717C93.0009 41.3854 93.121 41.6752 93.121 41.9775Z" fill="white"/>
</g>
<g opacity="0.7">
<path d="M87.5646 90.4722C87.567 90.6971 87.6359 90.9162 87.7626 91.102C87.8893 91.2878 88.0681 91.4319 88.2765 91.5163C88.485 91.6006 88.7137 91.6215 88.9339 91.5761C89.1542 91.5307 89.3561 91.4212 89.5142 91.2614C89.6724 91.1015 89.7797 90.8985 89.8227 90.6778C89.8657 90.457 89.8424 90.2285 89.7558 90.021C89.6692 89.8135 89.5231 89.6362 89.336 89.5115C89.1489 89.3869 88.929 89.3203 88.7042 89.3203C88.5533 89.3199 88.404 89.3495 88.2647 89.4074C88.1254 89.4653 87.9991 89.5503 87.893 89.6575C87.787 89.7647 87.7033 89.892 87.6469 90.0319C87.5905 90.1717 87.5625 90.3214 87.5646 90.4722Z" fill="white"/>
<path d="M82.7207 90.4716C82.7201 90.6979 82.7867 90.9192 82.912 91.1076C83.0373 91.296 83.2158 91.4429 83.4247 91.5298C83.6336 91.6167 83.8636 91.6396 84.0855 91.5956C84.3075 91.5516 84.5114 91.4427 84.6714 91.2827C84.8314 91.1227 84.9403 90.9188 84.9843 90.6969C85.0282 90.4749 85.0054 90.2449 84.9185 90.036C84.8316 89.8271 84.6847 89.6486 84.4963 89.5233C84.3079 89.398 84.0866 89.3314 83.8603 89.332C83.5581 89.332 83.2682 89.4521 83.0545 89.6658C82.8408 89.8795 82.7207 90.1694 82.7207 90.4716Z" fill="white"/>
<path d="M90.8418 93.9951C90.8418 94.2205 90.9086 94.4408 91.0339 94.6282C91.1591 94.8156 91.3371 94.9617 91.5453 95.0479C91.7535 95.1342 91.9827 95.1567 92.2037 95.1128C92.4248 95.0688 92.6278 94.9603 92.7872 94.8009C92.9466 94.6415 93.0551 94.4385 93.0991 94.2174C93.1431 93.9963 93.1205 93.7672 93.0343 93.559C92.948 93.3507 92.8019 93.1728 92.6145 93.0475C92.4271 92.9223 92.2068 92.8555 91.9814 92.8555C91.8316 92.8551 91.6833 92.8843 91.5448 92.9414C91.4064 92.9985 91.2806 93.0824 91.1747 93.1883C91.0688 93.2942 90.9848 93.42 90.9277 93.5585C90.8706 93.6969 90.8414 93.8453 90.8418 93.9951Z" fill="white"/>
<path d="M86.3398 93.9951C86.3392 94.2212 86.4057 94.4424 86.5309 94.6307C86.6561 94.8191 86.8344 94.966 87.0431 95.053C87.2518 95.1399 87.4817 95.163 87.7036 95.1192C87.9254 95.0755 88.1293 94.9669 88.2894 94.8072C88.4495 94.6475 88.5587 94.444 88.603 94.2222C88.6474 94.0005 88.6249 93.7706 88.5385 93.5616C88.4521 93.3526 88.3057 93.174 88.1177 93.0483C87.9297 92.9226 87.7087 92.8555 87.4825 92.8555C87.3326 92.8551 87.1841 92.8842 87.0455 92.9413C86.9069 92.9984 86.7809 93.0823 86.6747 93.1882C86.5686 93.294 86.4843 93.4198 86.4269 93.5582C86.3694 93.6967 86.3398 93.8452 86.3398 93.9951Z" fill="white"/>
<path d="M81.8398 93.9951C81.8392 94.2213 81.9058 94.4427 82.0311 94.6311C82.1565 94.8195 82.3349 94.9664 82.5438 95.0533C82.7527 95.1401 82.9828 95.163 83.2047 95.119C83.4266 95.075 83.6305 94.9661 83.7905 94.8061C83.9505 94.6462 84.0594 94.4423 84.1034 94.2203C84.1474 93.9984 84.1245 93.7684 84.0376 93.5594C83.9508 93.3505 83.8038 93.1721 83.6154 93.0468C83.4271 92.9214 83.2057 92.8549 82.9795 92.8555C82.6772 92.8555 82.3873 92.9755 82.1736 93.1892C81.9599 93.403 81.8398 93.6928 81.8398 93.9951Z" fill="white"/>
<path d="M88.248 86.9482C88.248 87.1736 88.3149 87.3939 88.4401 87.5813C88.5653 87.7687 88.7433 87.9148 88.9515 88.001C89.1598 88.0873 89.3889 88.1099 89.61 88.0659C89.831 88.0219 90.0341 87.9134 90.1935 87.754C90.3528 87.5946 90.4614 87.3916 90.5054 87.1705C90.5493 86.9495 90.5268 86.7203 90.4405 86.5121C90.3543 86.3038 90.2082 86.1259 90.0208 86.0007C89.8334 85.8754 89.613 85.8086 89.3877 85.8086C89.0854 85.8086 88.7955 85.9287 88.5818 86.1424C88.3681 86.3561 88.248 86.6459 88.248 86.9482Z" fill="white"/>
<path d="M83.75 86.9482C83.75 87.1736 83.8168 87.3939 83.9421 87.5813C84.0673 87.7687 84.2453 87.9148 84.4535 88.001C84.6617 88.0873 84.8909 88.1099 85.1119 88.0659C85.333 88.0219 85.536 87.9134 85.6954 87.754C85.8548 87.5946 85.9633 87.3916 86.0073 87.1705C86.0513 86.9495 86.0287 86.7203 85.9425 86.5121C85.8562 86.3039 85.7101 86.1259 85.5227 86.0007C85.3353 85.8754 85.115 85.8086 84.8896 85.8086C84.7398 85.8082 84.5915 85.8374 84.453 85.8945C84.3146 85.9516 84.1888 86.0356 84.0829 86.1415C83.977 86.2474 83.8931 86.3732 83.8359 86.5116C83.7788 86.6501 83.7496 86.7984 83.75 86.9482Z" fill="white"/>
<path d="M79.2461 86.9482C79.2455 87.1743 79.312 87.3956 79.4372 87.5839C79.5624 87.7722 79.7406 87.9191 79.9494 88.0061C80.1581 88.093 80.3879 88.1161 80.6098 88.0724C80.8317 88.0286 81.0356 87.92 81.1957 87.7604C81.3558 87.6007 81.4649 87.3971 81.5093 87.1753C81.5536 86.9536 81.5312 86.7237 81.4448 86.5147C81.3584 86.3057 81.2119 86.1271 81.0239 86.0014C80.836 85.8757 80.6149 85.8086 80.3888 85.8086C80.2389 85.8082 80.0903 85.8374 79.9517 85.8945C79.8131 85.9516 79.6871 86.0354 79.581 86.1413C79.4748 86.2472 79.3906 86.3729 79.3331 86.5114C79.2757 86.6498 79.2461 86.7983 79.2461 86.9482Z" fill="white"/>
</g>
<path d="M98.6195 71.8971C100.778 71.8971 102.528 70.1472 102.528 67.9886C102.528 65.83 100.778 64.0801 98.6195 64.0801C96.4608 64.0801 94.7109 65.83 94.7109 67.9886C94.7109 70.1472 96.4608 71.8971 98.6195 71.8971Z" fill="#999999"/>
<path d="M106.237 67.9882C106.236 66.3353 105.698 64.7274 104.704 63.4071C103.709 62.0867 102.313 61.1255 100.724 60.6683C99.1358 60.2112 97.4418 60.2829 95.8977 60.8727C94.3537 61.4625 93.0432 62.5383 92.1641 63.938" stroke="#263238" stroke-width="0.8" stroke-linecap="round" stroke-linejoin="round"/>
<path d="M91.6156 52.3594H83.7246V83.6214H91.6156C93.5761 83.6214 95.4562 82.8426 96.8425 81.4563C98.2288 80.07 99.0076 78.1899 99.0076 76.2294V59.7514C99.0076 57.7909 98.2288 55.9107 96.8425 54.5244C95.4562 53.1382 93.5761 52.3594 91.6156 52.3594Z" fill="#F87D4E" stroke="#263238" stroke-width="0.8" stroke-linecap="round" stroke-linejoin="round"/>
<path d="M90.303 52.3516H77.1453C73.4676 52.3516 70.4863 55.3329 70.4863 59.0105V76.9669C70.4863 80.6446 73.4676 83.6259 77.1453 83.6259H90.303C93.9807 83.6259 96.962 80.6446 96.962 76.9669V59.0105C96.962 55.3329 93.9807 52.3516 90.303 52.3516Z" fill="#999999" stroke="#263238" stroke-width="0.8" stroke-linecap="round" stroke-linejoin="round"/>
<path d="M90.4577 55.3594H76.9919C75.0612 55.3594 73.4961 56.9245 73.4961 58.8552V77.1196C73.4961 79.0503 75.0612 80.6154 76.9919 80.6154H90.4577C92.3883 80.6154 93.9535 79.0503 93.9535 77.1196V58.8552C93.9535 56.9245 92.3883 55.3594 90.4577 55.3594Z" fill="#263238" stroke="#263238" stroke-width="0.8" stroke-linecap="round" stroke-linejoin="round"/>
<path d="M97.816 71.0435C97.3448 71.0435 96.9629 69.676 96.9629 67.9881C96.9629 66.3003 97.3448 64.9297 97.816 64.9297H99.356C99.8273 64.9297 100.209 66.3003 100.209 67.9881C100.209 69.676 99.8273 71.0435 99.356 71.0435H97.816Z" fill="#757575" stroke="#263238" stroke-width="0.8" stroke-linecap="round" stroke-linejoin="round"/>
<path d="M99.3453 71.0443C99.8165 71.0443 100.199 69.6764 100.199 67.989C100.199 66.3015 99.8165 64.9336 99.3453 64.9336C98.8742 64.9336 98.4922 66.3015 98.4922 67.989C98.4922 69.6764 98.8742 71.0443 99.3453 71.0443Z" fill="#F87D4E" stroke="#263238" stroke-width="0.8" stroke-linecap="round" stroke-linejoin="round"/>
<path d="M76.234 60.186H75.4609V59.6531C76.0954 59.6531 76.3233 59.5145 76.4927 59.0371H77.0009V63.8327H76.2463L76.234 60.186Z" fill="white"/>
<path d="M77.8633 62.7061V60.1867C77.8633 59.4198 78.2698 58.9824 79.009 58.9824C79.7482 58.9824 80.1517 59.4198 80.1517 60.1867V62.7061C80.1517 63.4761 79.7482 63.9135 79.009 63.9135C78.2698 63.9135 77.8633 63.4761 77.8633 62.7061ZM79.4033 62.7554V60.1405C79.4033 59.7955 79.2524 59.6662 79.0152 59.6662C78.778 59.6662 78.624 59.7955 78.624 60.1405V62.7554C78.624 63.0973 78.775 63.2267 79.0152 63.2267C79.2554 63.2267 79.3971 63.0973 79.3971 62.7554H79.4033Z" fill="white"/>
<path d="M80.6562 60.5098H81.3831V61.2336H80.6562V60.5098ZM80.6562 63.1185H81.3831V63.8454H80.6562V63.1185Z" fill="white"/>
<path d="M81.8887 62.7061V60.1867C81.8887 59.4198 82.2952 58.9824 83.0344 58.9824C83.7736 58.9824 84.1771 59.4198 84.1771 60.1867V62.7061C84.1771 63.4761 83.7736 63.9135 83.0344 63.9135C82.2952 63.9135 81.8887 63.4761 81.8887 62.7061ZM83.4287 62.7554V60.1405C83.4287 59.7955 83.2808 59.6662 83.0406 59.6662C82.8003 59.6662 82.6494 59.7955 82.6494 60.1405V62.7554C82.6494 63.0973 82.8003 63.2267 83.0406 63.2267C83.2808 63.2267 83.4225 63.0973 83.4225 62.7554H83.4287Z" fill="white"/>
<path d="M84.6641 62.7067V62.331H85.3755V62.7622C85.3755 63.1041 85.5265 63.2273 85.7667 63.2273C86.0069 63.2273 86.1579 63.1041 86.1579 62.7622V61.6873C86.1579 61.3454 86.0069 61.216 85.7667 61.216C85.5265 61.216 85.3755 61.3454 85.3755 61.6873V61.7273H84.6641L84.7996 59.0508H86.7862V59.7345H85.471L85.4094 60.8803H85.4248C85.4898 60.7672 85.5851 60.6744 85.6999 60.6124C85.8147 60.5504 85.9444 60.5216 86.0747 60.5292C86.6291 60.5292 86.9094 60.9203 86.9094 61.6257V62.7067C86.9094 63.4767 86.5275 63.9141 85.7852 63.9141C85.0429 63.9141 84.6641 63.4767 84.6641 62.7067Z" fill="white"/>
<path d="M75.7009 67.2671H75.2266V66.9591C75.6085 66.9591 75.744 66.876 75.8426 66.5957H76.1506V69.4724H75.7009V67.2671Z" fill="white"/>
<path d="M76.6581 68.7887V68.5362C76.6447 68.4186 76.6668 68.2996 76.7218 68.1947C76.7767 68.0898 76.8618 68.0039 76.9661 67.9479C76.8698 67.8906 76.7923 67.8065 76.743 67.7059C76.6938 67.6052 76.675 67.4924 76.6889 67.3812V67.2641C76.6889 67.0812 76.7616 66.9057 76.891 66.7763C77.0204 66.6469 77.1959 66.5742 77.3788 66.5742C77.5618 66.5742 77.7373 66.6469 77.8667 66.7763C77.9961 66.9057 78.0688 67.0812 78.0688 67.2641V67.3812C78.0816 67.4926 78.062 67.6054 78.0123 67.7059C77.9625 67.8064 77.8848 67.8905 77.7885 67.9479C77.8925 68.0042 77.9774 68.0902 78.0323 68.195C78.0872 68.2998 78.1095 68.4186 78.0965 68.5362V68.7887C78.0965 68.9758 78.0222 69.1552 77.8899 69.2875C77.7576 69.4197 77.5782 69.4941 77.3912 69.4941C77.2041 69.4941 77.0247 69.4197 76.8924 69.2875C76.7602 69.1552 76.6858 68.9758 76.6858 68.7887H76.6581ZM77.6191 68.7641V68.49C77.6191 68.2713 77.5328 68.1666 77.3634 68.1666C77.194 68.1666 77.1078 68.2713 77.1078 68.49V68.7641C77.1078 68.9828 77.194 69.0875 77.3634 69.0875C77.5328 69.0875 77.616 68.992 77.616 68.7641H77.6191ZM77.6006 67.4674V67.2426C77.6006 67.0516 77.5174 66.9531 77.3634 66.9531C77.2094 66.9531 77.1232 67.0516 77.1232 67.2426V67.4674C77.1232 67.6553 77.2064 67.7539 77.3634 67.7539C77.5205 67.7539 77.616 67.6553 77.616 67.4674H77.6006Z" fill="white"/>
<path d="M79.2365 66.9967H78.3125V66.584H79.6677V66.9782L78.9624 69.4607H78.5004L79.2365 66.9967Z" fill="white"/>
<path d="M80.8323 67.1992H81.2389L81.5469 69.115H81.2389L81.1835 68.7361H80.8416L80.7861 69.1088H80.5059L80.8323 67.1992ZM81.1588 68.4805L81.0264 67.5349L80.8939 68.4805H81.1588Z" fill="white"/>
<path d="M81.6738 68.6851V67.6564C81.6738 67.5388 81.7206 67.426 81.8037 67.3428C81.8869 67.2596 81.9997 67.2129 82.1173 67.2129C82.235 67.2129 82.3478 67.2596 82.431 67.3428C82.5141 67.426 82.5609 67.5388 82.5609 67.6564V67.8597H82.2744V67.6379C82.2744 67.5117 82.2159 67.4593 82.1235 67.4593C82.0311 67.4593 81.9726 67.5117 81.9726 67.6379V68.6851C81.9726 68.8114 82.0342 68.8607 82.1235 68.8607C82.2128 68.8607 82.2744 68.8114 82.2744 68.6851V68.3925H82.5609V68.6851C82.5609 68.8028 82.5141 68.9156 82.431 68.9987C82.3478 69.0819 82.235 69.1287 82.1173 69.1287C81.9997 69.1287 81.8869 69.0819 81.8037 68.9987C81.7206 68.9156 81.6738 68.8028 81.6738 68.6851Z" fill="white"/>
<path d="M82.976 67.4733H82.668V67.1992H83.592V67.4733H83.284V69.115H82.976V67.4733Z" fill="white"/>
<path d="M83.7363 67.1992H84.0443V69.115H83.7363V67.1992Z" fill="white"/>
<path d="M84.1836 67.2003H84.4916L84.701 68.6849L84.8982 67.1973H85.1723L84.8828 69.113H84.4824L84.1836 67.2003Z" fill="white"/>
<path d="M85.3164 67.1992H86.1357V67.4733H85.6244V67.9785H86.0402V68.2526H85.6244V68.8409H86.1449V69.115H85.3164V67.1992Z" fill="white"/>
<path d="M86.7246 68.6851V67.6564C86.7246 67.5388 86.7713 67.426 86.8545 67.3428C86.9377 67.2596 87.0505 67.2129 87.1681 67.2129C87.2858 67.2129 87.3986 67.2596 87.4817 67.3428C87.5649 67.426 87.6117 67.5388 87.6117 67.6564V67.8597H87.3252V67.6379C87.3252 67.5117 87.2667 67.4593 87.1743 67.4593C87.0819 67.4593 87.0234 67.5117 87.0234 67.6379V68.6851C87.0234 68.8114 87.085 68.8607 87.1743 68.8607C87.2636 68.8607 87.3252 68.8114 87.3252 68.6851V68.3925H87.6117V68.6851C87.6117 68.8028 87.5649 68.9156 87.4817 68.9987C87.3986 69.0819 87.2858 69.1287 87.1681 69.1287C87.0505 69.1287 86.9377 69.0819 86.8545 68.9987C86.7713 68.9156 86.7246 68.8028 86.7246 68.6851Z" fill="white"/>
<path d="M88.0246 67.1992H88.4311L88.7391 69.115H88.4311L88.3757 68.7361H88.0338L87.9784 69.1088H87.7012L88.0246 67.1992ZM88.3541 68.4805L88.2186 67.5349L88.0893 68.4805H88.3541Z" fill="white"/>
<path d="M88.8887 67.1992H89.1967V68.8409H89.6925V69.115H88.8887V67.1992Z" fill="white"/>
<path d="M75.0609 73.3896C75.0567 73.1981 75.0948 73.0079 75.1725 72.8328C75.2503 72.6576 75.3657 72.5018 75.5105 72.3763C75.8555 72.0129 75.9541 71.7942 75.9541 71.5262C75.9541 71.2583 75.8647 71.1998 75.72 71.1998C75.5752 71.1998 75.4859 71.2768 75.4859 71.4831V71.7911H75.0609V71.5108C75.0609 71.0519 75.2888 70.787 75.7323 70.787C75.8279 70.7763 75.9246 70.7881 76.0148 70.8215C76.105 70.8549 76.1861 70.9089 76.2517 70.9792C76.3172 71.0496 76.3654 71.1343 76.3923 71.2266C76.4193 71.3189 76.4242 71.4163 76.4068 71.5108C76.4068 71.8527 76.2682 72.1546 75.8493 72.5981C75.5783 72.8876 75.5075 73.0293 75.5075 73.2141V73.3034H76.3668V73.713H75.0609V73.3896Z" fill="white"/>
<path d="M76.6929 73.0244V71.5121C76.6867 71.4182 76.6997 71.3241 76.7313 71.2355C76.7629 71.1469 76.8123 71.0657 76.8766 70.997C76.9408 70.9283 77.0185 70.8735 77.1048 70.8361C77.1911 70.7986 77.2842 70.7793 77.3782 70.7793C77.4723 70.7793 77.5654 70.7986 77.6517 70.8361C77.738 70.8735 77.8157 70.9283 77.8799 70.997C77.9442 71.0657 77.9936 71.1469 78.0252 71.2355C78.0568 71.3241 78.0698 71.4182 78.0635 71.5121V73.0244C78.0698 73.1182 78.0568 73.2124 78.0252 73.301C77.9936 73.3896 77.9442 73.4708 77.8799 73.5395C77.8157 73.6082 77.738 73.663 77.6517 73.7004C77.5654 73.7379 77.4723 73.7572 77.3782 73.7572C77.2842 73.7572 77.1911 73.7379 77.1048 73.7004C77.0185 73.663 76.9408 73.6082 76.8766 73.5395C76.8123 73.4708 76.7629 73.3896 76.7313 73.301C76.6997 73.2124 76.6867 73.1182 76.6929 73.0244ZM77.6169 73.0521V71.4844C77.6169 71.278 77.5245 71.201 77.3829 71.201C77.2412 71.201 77.1488 71.278 77.1488 71.4844V73.0521C77.1488 73.2585 77.2381 73.3355 77.3829 73.3355C77.5276 73.3355 77.5985 73.2585 77.5985 73.0521H77.6169Z" fill="white"/>
<path d="M79.1104 73.1832H78.248V72.7705L79.0673 70.8301H79.5601V72.7705H79.7757V73.1832H79.5601V73.7037H79.1104V73.1832ZM79.1104 72.7705V71.6494L78.6669 72.7705H79.1104Z" fill="white"/>
<path d="M80.8353 71.7188H80.5273V71.457H81.4513V71.7281H81.1433V73.3728H80.8353V71.7188Z" fill="white"/>
<path d="M81.5625 72.9067V71.8995C81.5625 71.777 81.6112 71.6595 81.6978 71.5728C81.7845 71.4862 81.902 71.4375 82.0245 71.4375C82.147 71.4375 82.2645 71.4862 82.3512 71.5728C82.4378 71.6595 82.4865 71.777 82.4865 71.8995V72.9067C82.4865 73.0292 82.4378 73.1467 82.3512 73.2333C82.2645 73.32 82.147 73.3687 82.0245 73.3687C81.902 73.3687 81.7845 73.32 81.6978 73.2333C81.6112 73.1467 81.5625 73.0292 81.5625 72.9067ZM82.1785 72.9251V71.881C82.1785 71.7424 82.12 71.6931 82.0245 71.6931C81.929 71.6931 81.8674 71.7424 81.8674 71.881V72.9251C81.8674 73.0637 81.9259 73.1161 82.0245 73.1161C82.1231 73.1161 82.1754 73.0637 82.1754 72.9251H82.1785Z" fill="white"/>
<path d="M82.9057 71.7188H82.5977V71.457H83.5217V71.7281H83.2137V73.3728H82.9057V71.7188Z" fill="white"/>
<path d="M83.7767 71.457H84.1833L84.4913 73.3728H84.1833L84.1279 72.9909H83.786L83.7306 73.3666H83.4688L83.7767 71.457ZM84.1032 72.7352L83.9708 71.7897L83.8384 72.7352H84.1032Z" fill="white"/>
<path d="M84.6387 71.457H84.9467V73.0987H85.4395V73.3728H84.6387V71.457Z" fill="white"/>
<path d="M86 72.9187V71.8869C86 71.7692 86.0467 71.6564 86.1299 71.5733C86.2131 71.4901 86.3259 71.4434 86.4435 71.4434C86.5611 71.4434 86.674 71.4901 86.7571 71.5733C86.8403 71.6564 86.887 71.7692 86.887 71.8869V72.0902H86.6006V71.8684C86.6006 71.7421 86.5421 71.6928 86.4497 71.6928C86.3573 71.6928 86.3018 71.7421 86.3018 71.8684V72.9402C86.3018 73.0665 86.3604 73.1158 86.4497 73.1158C86.539 73.1158 86.6006 73.0665 86.6006 72.9402V72.6476H86.887V72.9187C86.887 73.0363 86.8403 73.1491 86.7571 73.2323C86.674 73.3155 86.5611 73.3622 86.4435 73.3622C86.3259 73.3622 86.2131 73.3155 86.1299 73.2323C86.0467 73.1491 86 73.0363 86 72.9187Z" fill="white"/>
<path d="M87.3008 71.457H87.7104L88.0184 73.3728H87.7104L87.655 72.9909H87.3131L87.2577 73.3666H86.9805L87.3008 71.457ZM87.6304 72.7352L87.4948 71.7897L87.3624 72.7352H87.6304Z" fill="white"/>
<path d="M88.166 71.457H88.474V73.0987H88.9699V73.3728H88.1722L88.166 71.457Z" fill="white"/>
<path d="M75.8233 77.4273H74.9609V77.0177L75.7802 75.0742H76.273V77.0177H76.4886V77.4273H76.273V77.9479H75.8233V77.4273ZM75.8233 77.0177V75.8966L75.3798 77.0177H75.8233Z" fill="white"/>
<path d="M76.6929 77.2679V75.768C76.6867 75.6741 76.6997 75.58 76.7313 75.4913C76.7629 75.4027 76.8123 75.3216 76.8766 75.2529C76.9408 75.1842 77.0185 75.1294 77.1048 75.0919C77.1911 75.0545 77.2842 75.0352 77.3782 75.0352C77.4723 75.0352 77.5654 75.0545 77.6517 75.0919C77.738 75.1294 77.8157 75.1842 77.8799 75.2529C77.9442 75.3216 77.9936 75.4027 78.0252 75.4913C78.0568 75.58 78.0698 75.6741 78.0635 75.768V77.2802C78.0698 77.3741 78.0568 77.4683 78.0252 77.5569C77.9936 77.6455 77.9442 77.7266 77.8799 77.7953C77.8157 77.8641 77.738 77.9188 77.6517 77.9563C77.5654 77.9937 77.4723 78.0131 77.3782 78.0131C77.2842 78.0131 77.1911 77.9937 77.1048 77.9563C77.0185 77.9188 76.9408 77.8641 76.8766 77.7953C76.8123 77.7266 76.7629 77.6455 76.7313 77.5569C76.6997 77.4683 76.6867 77.3741 76.6929 77.2802V77.2679ZM77.6169 77.2956V75.7279C77.6169 75.5216 77.5245 75.4446 77.3829 75.4446C77.2412 75.4446 77.1488 75.5216 77.1488 75.7279V77.308C77.1488 77.5143 77.2381 77.5913 77.3829 77.5913C77.5276 77.5913 77.5985 77.502 77.5985 77.308L77.6169 77.2956Z" fill="white"/>
<path d="M78.957 75.6914H79.265V77.333H79.7609V77.6164H78.9663L78.957 75.6914Z" fill="white"/>
<path d="M80.1429 75.6914H80.5494L80.8574 77.6072H80.5494L80.494 77.2252H80.1521L80.0967 77.601H79.8164L80.1429 75.6914ZM80.4694 76.9727L80.3369 76.024L80.2045 76.9727H80.4694Z" fill="white"/>
<path d="M81.0039 75.6914H81.4474C81.7554 75.6914 81.894 75.8577 81.894 76.1657V76.3536C81.894 76.6616 81.7462 76.8279 81.4474 76.8279H81.3119V77.6164H81.0039V75.6914ZM81.4474 76.5538C81.5429 76.5538 81.5953 76.5107 81.5953 76.3721V76.1442C81.5953 76.0086 81.5429 75.9655 81.4474 75.9655H81.3119V76.5538H81.4474Z" fill="white"/>
<path d="M82.0215 77.1543V77.0434H82.3079V77.1759C82.3079 77.3114 82.3664 77.3607 82.465 77.3607C82.5636 77.3607 82.619 77.3114 82.619 77.1697C82.619 77.028 82.5605 76.9079 82.3634 76.7354C82.2637 76.6706 82.1812 76.5828 82.1228 76.4793C82.0643 76.3758 82.0317 76.2598 82.0277 76.141C82.0186 76.0786 82.0238 76.015 82.0428 75.9548C82.0618 75.8947 82.0941 75.8397 82.1373 75.7938C82.1805 75.7479 82.2335 75.7123 82.2924 75.6898C82.3513 75.6673 82.4145 75.6583 82.4773 75.6636C82.7853 75.6636 82.9147 75.8391 82.9147 76.1441V76.2241H82.6313V76.1256C82.6313 75.9901 82.5759 75.9377 82.4804 75.9377C82.3849 75.9377 82.3295 75.9901 82.3295 76.1194C82.3295 76.2488 82.3911 76.3627 82.5882 76.5352C82.6902 76.6024 82.774 76.6938 82.8321 76.8013C82.8901 76.9088 82.9206 77.0291 82.9208 77.1512C82.9304 77.2147 82.9254 77.2794 82.9063 77.3407C82.8873 77.4019 82.8546 77.4581 82.8107 77.5049C82.7669 77.5517 82.713 77.588 82.6531 77.611C82.5932 77.634 82.5289 77.6432 82.465 77.6379C82.1693 77.6348 82.0215 77.4592 82.0215 77.1543Z" fill="white"/>
<path d="M90.2443 60.5214C90.1475 60.5222 90.0524 60.5466 89.9671 60.5923C90.0004 60.5036 90.0181 60.4098 90.0194 60.3151C90.0194 60.0994 89.9337 59.8926 89.7813 59.7401C89.6288 59.5876 89.422 59.502 89.2063 59.502C88.9906 59.502 88.7838 59.5876 88.6313 59.7401C88.4788 59.8926 88.3932 60.0994 88.3932 60.3151C88.393 60.413 88.4107 60.51 88.4455 60.6015C88.3577 60.5499 88.2579 60.5223 88.156 60.5214C88.0741 60.5155 87.9919 60.5266 87.9145 60.5539C87.8371 60.5811 87.7662 60.6241 87.7061 60.68C87.646 60.7359 87.5981 60.8036 87.5653 60.8789C87.5325 60.9541 87.5156 61.0353 87.5156 61.1174C87.5156 61.1995 87.5325 61.2807 87.5653 61.3559C87.5981 61.4312 87.646 61.4989 87.7061 61.5548C87.7662 61.6107 87.8371 61.6537 87.9145 61.681C87.9919 61.7082 88.0741 61.7193 88.156 61.7134H90.2443C90.3949 61.7026 90.5359 61.6351 90.6388 61.5245C90.7417 61.4139 90.7989 61.2685 90.7989 61.1174C90.7989 60.9664 90.7417 60.8209 90.6388 60.7103C90.5359 60.5998 90.3949 60.5323 90.2443 60.5214V60.5214Z" stroke="white" stroke-width="0.8" stroke-linecap="round" stroke-linejoin="round"/>
<path d="M91.0331 59.904C91.1862 59.904 91.3103 59.7799 91.3103 59.6268C91.3103 59.4737 91.1862 59.3496 91.0331 59.3496C90.88 59.3496 90.7559 59.4737 90.7559 59.6268C90.7559 59.7799 90.88 59.904 91.0331 59.904Z" stroke="white" stroke-width="0.8" stroke-linecap="round" stroke-linejoin="round"/>
<path d="M91.0332 60.1797V60.5062" stroke="white" stroke-width="0.8" stroke-linecap="round" stroke-linejoin="round"/>
<path d="M91.0332 58.7441V59.0737" stroke="white" stroke-width="0.8" stroke-linecap="round" stroke-linejoin="round"/>
<path d="M90.4788 59.625H90.1523" stroke="white" stroke-width="0.8" stroke-linecap="round" stroke-linejoin="round"/>
<path d="M91.9135 59.625H91.584" stroke="white" stroke-width="0.8" stroke-linecap="round" stroke-linejoin="round"/>
<path d="M90.6412 60.0176L90.4102 60.2486" stroke="white" stroke-width="0.8" stroke-linecap="round" stroke-linejoin="round"/>
<path d="M91.6548 59.0039L91.4238 59.2349" stroke="white" stroke-width="0.8" stroke-linecap="round" stroke-linejoin="round"/>
<path d="M90.6412 59.2349L90.4102 59.0039" stroke="white" stroke-width="0.8" stroke-linecap="round" stroke-linejoin="round"/>
<path d="M91.6548 60.2486L91.4238 60.0176" stroke="white" stroke-width="0.8" stroke-linecap="round" stroke-linejoin="round"/>
<path d="M71.7061 88.1443H69.5162L70.1476 84.5469L67.1446 88.1443H62.1242C61.4653 88.1451 60.8335 88.4073 60.3676 88.8732C59.9016 89.3392 59.6395 89.9709 59.6387 90.6299V103.624C59.6395 104.283 59.9016 104.915 60.3676 105.381C60.8335 105.847 61.4653 106.109 62.1242 106.11H71.703C72.3625 106.11 72.9951 105.848 73.4617 105.382C73.9283 104.916 74.1909 104.284 74.1917 103.624V90.6299C74.1909 89.9709 73.9287 89.3392 73.4628 88.8732C72.9968 88.4073 72.3651 88.1451 71.7061 88.1443Z" fill="white" stroke="#263238" stroke-width="0.8" stroke-linecap="round" stroke-linejoin="round"/>
<path d="M62.8318 96.4056C61.8862 95.4816 61.4766 94.459 61.4766 93.5473C61.4766 92.0073 62.5114 90.957 64.0822 90.957C65.5483 90.957 66.0504 91.6346 66.9066 92.6172C67.7659 91.6346 68.2649 90.957 69.731 90.957C71.3018 90.957 72.3397 91.995 72.3397 93.5473C72.3397 94.4713 71.927 95.4754 70.9814 96.4056L67.3748 100.009C67.3143 100.07 67.2424 100.119 67.1631 100.152C67.0838 100.185 66.9987 100.202 66.9128 100.202C66.8268 100.202 66.7418 100.185 66.6624 100.152C66.5831 100.119 66.5112 100.07 66.4508 100.009L62.8318 96.4056Z" fill="#F87D4E" stroke="#263238" stroke-width="0.8" stroke-miterlimit="10"/>
<path d="M63.0234 95.4123H64.8714L65.8509 92.6465L67.8098 98.1751L68.7892 95.4123H70.8097" stroke="#263238" stroke-width="0.8" stroke-linecap="round" stroke-linejoin="round"/>
<path d="M63.1717 103.63V103.387C63.159 103.276 63.1791 103.165 63.2295 103.065C63.2799 102.966 63.3583 102.884 63.455 102.829C63.3624 102.776 63.2876 102.696 63.2399 102.6C63.1923 102.504 63.1739 102.397 63.1871 102.29V102.179C63.1871 102.005 63.2562 101.839 63.3792 101.716C63.5022 101.593 63.6691 101.523 63.8431 101.523C64.0171 101.523 64.184 101.593 64.307 101.716C64.43 101.839 64.4991 102.005 64.4991 102.179V102.29C64.5107 102.396 64.4919 102.503 64.445 102.598C64.3981 102.694 64.325 102.774 64.2343 102.829C64.3301 102.885 64.4077 102.967 64.4575 103.066C64.5073 103.165 64.5271 103.277 64.5145 103.387V103.63C64.5145 103.808 64.4438 103.979 64.3179 104.105C64.192 104.231 64.0212 104.302 63.8431 104.302C63.665 104.302 63.4942 104.231 63.3683 104.105C63.2424 103.979 63.1717 103.808 63.1717 103.63ZM64.0957 103.606V103.344C64.0957 103.137 64.0156 103.036 63.8554 103.036C63.6953 103.036 63.6152 103.137 63.6152 103.344V103.606C63.6152 103.812 63.6953 103.914 63.8554 103.914C64.0156 103.914 64.0833 103.812 64.0833 103.606H64.0957ZM64.0803 102.374V102.161C64.0803 101.982 64.0033 101.887 63.8554 101.887C63.7076 101.887 63.6306 101.982 63.6306 102.161V102.374C63.6306 102.555 63.7076 102.648 63.8554 102.648C64.0033 102.648 64.0649 102.564 64.0649 102.374H64.0803Z" fill="#263238"/>
<path d="M65.6194 101.928H64.7539V101.537H66.0413V101.913L65.3699 104.266H64.9325L65.6194 101.928Z" fill="#263238"/>
<path d="M66.9141 102.146H67.3607C67.6687 102.146 67.7949 102.288 67.7949 102.578V102.652C67.7949 102.846 67.7364 102.96 67.6071 103.021C67.7641 103.077 67.8257 103.215 67.8257 103.412V103.576C67.8333 103.636 67.827 103.697 67.8072 103.755C67.7874 103.812 67.7547 103.864 67.7115 103.907C67.6684 103.95 67.616 103.982 67.5583 104.002C67.5007 104.021 67.4394 104.027 67.3791 104.019H66.9141V102.146ZM67.3237 102.91C67.4346 102.91 67.5023 102.861 67.5023 102.713V102.608C67.5023 102.473 67.4561 102.414 67.3514 102.414H67.2097V102.91H67.3237ZM67.3791 103.754C67.4777 103.754 67.5301 103.708 67.5301 103.569V103.406C67.5301 103.231 67.4746 103.178 67.3422 103.178H67.2097V103.754H67.3791Z" fill="#263238"/>
<path d="M67.998 102.146H68.4323C68.7249 102.146 68.8697 102.31 68.8697 102.612V102.796C68.8697 103.104 68.7249 103.258 68.4323 103.258H68.2906V104.022H67.998V102.146ZM68.4323 102.99C68.5247 102.99 68.5771 102.947 68.5771 102.815V102.59C68.5771 102.458 68.5247 102.414 68.4323 102.414H68.2906V102.99H68.4323Z" fill="#263238"/>
<path d="M69.0293 102.146H69.4513L69.6391 103.489L69.8239 102.146H70.2459V104.022H69.9687V102.602L69.7531 104.022H69.5067L69.2942 102.602V104.022H69.0355L69.0293 102.146Z" fill="#263238"/>
<path d="M47.6321 146.717C64.8755 146.717 78.8541 144.648 78.8541 142.097C78.8541 139.545 64.8755 137.477 47.6321 137.477C30.3887 137.477 16.4102 139.545 16.4102 142.097C16.4102 144.648 30.3887 146.717 47.6321 146.717Z" fill="#78350F"/>
<path d="M65.7326 68.375C65.7326 68.375 65.0335 70.1922 65.7326 70.4817C66.4318 70.7712 66.5827 69.145 66.8168 69.1943L65.7326 68.375Z" fill="white" stroke="#263238" stroke-width="0.7" stroke-linecap="round" stroke-linejoin="round"/>
<path d="M69.3731 66.1087C69.3731 66.1087 73.6388 64.9352 73.6388 63.0287C73.6388 61.0175 71.1225 59.6869 70.0229 59.3327C68.4228 58.773 66.8689 58.0892 65.3752 57.2876C63.6843 56.4036 62.6864 56.0556 61.8178 55.5443C60.3548 54.6912 58.3405 53.2312 56.3262 52.2148L57.589 60.1582C57.589 60.1582 64.6791 63.9404 67.3772 63.7556C67.3772 63.7556 65.7417 65.0492 65.4276 65.5204L69.3731 66.1087Z" fill="white" stroke="#263238" stroke-width="0.7" stroke-linecap="round" stroke-linejoin="round"/>
<path d="M67.3418 63.2173C67.7083 62.7553 67.8007 61.3693 68.9095 61.0859" stroke="#263238" stroke-width="0.7" stroke-linecap="round" stroke-linejoin="round"/>
<path d="M68.2889 63.2167C68.2889 63.2167 70.0723 62.1972 70.8977 64.0144C71.7231 65.8316 69.9953 66.4784 69.9953 66.4784L66.327 66.8973C66.327 66.8973 64.5714 64.7259 66.8167 63.8388L68.2889 63.2167Z" fill="#F87D4E" stroke="#263238" stroke-width="0.7" stroke-linecap="round" stroke-linejoin="round"/>
<path d="M63.7767 56.505C62.9759 56.1323 62.3691 55.8736 61.8178 55.5502C60.3548 54.697 58.3405 53.2371 56.3262 52.2207L57.589 60.164C57.589 60.164 59.9051 61.396 62.3938 62.4186C63.6319 59.5788 63.7983 57.5245 63.7767 56.505Z" fill="#263238" stroke="#263238" stroke-width="0.7" stroke-linecap="round" stroke-linejoin="round"/>
<path d="M69.1422 63.556C68.1443 63.864 65.3815 64.6802 65.4215 65.404C65.1724 65.4773 64.9593 65.6404 64.8234 65.8617C64.6874 66.0829 64.6383 66.3467 64.6854 66.6021C64.8025 67.5846 65.1105 68.4932 65.5755 68.8536C66.0406 69.2139 67.5529 70.7016 67.864 70.2365C68.1751 69.7714 67.5129 69.2016 67.5129 69.2016C67.5129 69.2016 68.4061 70.0178 68.8711 69.6174C69.3362 69.217 68.095 68.2376 67.787 67.8002C67.787 67.8002 69.2192 68.832 69.6843 68.3115C69.7831 68.1943 69.8373 68.0459 69.8373 67.8926C69.8373 67.7393 69.7831 67.5909 69.6843 67.4737C69.6843 67.4737 70.3588 67.7386 70.5898 67.1103C70.7253 66.7469 70.1493 66.3495 70.1493 66.3495C70.1493 66.3495 70.907 65.2222 70.6822 64.6062C70.4573 63.9902 70.1832 63.2264 69.1422 63.556Z" fill="white" stroke="#263238" stroke-width="0.7" stroke-linecap="round" stroke-linejoin="round"/>
<path d="M65.3828 66.2422C65.5562 66.434 65.6883 66.6594 65.7709 66.9044C66.1185 67.8231 66.7238 68.622 67.5142 69.2051" stroke="#263238" stroke-width="0.7" stroke-linecap="round" stroke-linejoin="round"/>
<path d="M66.4473 65.6973C66.5819 65.8565 66.6815 66.0422 66.7399 66.2424C66.9925 66.8215 67.3472 67.3504 67.7871 67.804" stroke="#263238" stroke-width="0.7" stroke-linecap="round" stroke-linejoin="round"/>
<path d="M67.9778 64.9355C67.9262 65.3034 68.0094 65.6775 68.2119 65.9889C68.5599 66.6419 68.6 66.7866 69.065 67.1131" stroke="#263238" stroke-width="0.7" stroke-linecap="round" stroke-linejoin="round"/>
<path d="M69.8411 66.0597C69.8411 66.0597 69.2959 65.299 69.413 64.9355" stroke="#263238" stroke-width="0.7" stroke-linecap="round" stroke-linejoin="round"/>
<path d="M68.3752 63.6787L67.0785 64.2115C66.9472 64.2666 66.7998 64.2699 66.6661 64.2208C66.5324 64.1716 66.4222 64.0737 66.3578 63.9466C66.3299 63.884 66.3152 63.8163 66.3145 63.7478C66.3138 63.6793 66.3271 63.6113 66.3536 63.5481C66.3802 63.4849 66.4194 63.4278 66.4688 63.3804C66.5183 63.3329 66.5769 63.2961 66.6412 63.2721L67.9378 62.7424C68.0683 62.6864 68.2152 62.6824 68.3486 62.731C68.4819 62.7797 68.5917 62.8774 68.6555 63.0042C68.6844 63.0665 68.7 63.1341 68.7014 63.2027C68.7028 63.2714 68.6899 63.3396 68.6635 63.403C68.6372 63.4664 68.5979 63.5236 68.5483 63.5711C68.4987 63.6186 68.4397 63.6552 68.3752 63.6787Z" fill="#999999" stroke="#263238" stroke-width="0.7" stroke-linecap="round" stroke-linejoin="round"/>
<path d="M54.0256 84.9128C54.0256 84.9128 54.9496 95.0768 50.77 108.958C50.532 110.83 49.9812 112.647 49.1407 114.336C49.1407 114.336 48.3676 129.591 49.2208 135.841L45.9621 137.51L43.4057 136.564C43.4057 136.564 44.4129 133.441 42.9407 127.485C41.4684 121.528 40.8463 116.588 42.3986 113.899C43.9509 111.21 41.7826 105.835 41.4284 97.8457L40.8463 91.1498C40.8463 91.1498 34.8002 82.0084 42.2415 77.7949L54.5615 83.4375L54.0256 84.9128Z" fill="white" stroke="#263238" stroke-width="0.7" stroke-linecap="round" stroke-linejoin="round"/>
<path d="M43.2377 135.606C43.6966 135.369 44.5805 135.914 44.9224 136.764C45.2643 137.615 48.0024 135.089 48.6338 135.606C49.2652 136.124 48.255 134.186 49.3545 134.026C50.4541 133.866 50.2015 135.542 51.7877 136.49C53.3739 137.439 59.7957 138.132 59.8358 140.097C59.8574 141.206 54.1347 141.092 49.1482 141.021C45.2982 140.959 42.0149 141.113 41.8979 140.593C41.7562 139.955 42.1412 138.982 42.3198 138.061C42.5293 136.952 42.5939 135.936 43.2377 135.606Z" fill="#F87D4E" stroke="#263238" stroke-width="0.7" stroke-linecap="round" stroke-linejoin="round"/>
<path d="M59.8349 140.082C59.8564 141.191 54.1338 141.077 49.1472 141.006C45.2972 140.944 42.014 141.098 41.8969 140.578C41.8969 140.578 41.7953 141.382 42.1033 141.736C42.1033 141.736 43.8558 142.155 48.291 141.961C52.7262 141.767 52.9295 142.321 58.2548 142.013C58.2548 141.989 60.2476 141.724 59.8349 140.082Z" fill="white" stroke="#263238" stroke-width="0.7" stroke-linecap="round" stroke-linejoin="round"/>
<path d="M42.2415 77.7949C34.8002 82.0084 40.8463 91.1498 40.8463 91.1498L41.4284 97.8457C41.5177 99.9155 41.7364 101.813 41.9705 103.531C45.3209 104.18 48.7562 104.264 52.1345 103.781C54.7186 92.6251 54.0133 84.9128 54.0133 84.9128L54.5646 83.4375L42.2415 77.7949Z" fill="#F87D4E"/>
<path opacity="0.2" d="M54.0258 84.9133C54.0258 84.9133 53.8995 92.5733 50.8503 94.7694C47.8011 96.9654 46.178 105.876 41.866 108.956C37.554 112.036 41.2746 93.4634 41.2746 93.4634L42.5035 85.7172L47.219 83.2871L51.8205 83.629L54.0258 84.9133Z" fill="black"/>
<path d="M42.2415 77.7949C34.8002 82.0084 40.8463 91.1498 40.8463 91.1498L41.4284 97.8457C41.5177 99.9155 41.7364 101.813 41.9705 103.531C45.3209 104.18 48.7562 104.264 52.1345 103.781C54.7186 92.6251 54.0133 84.9128 54.0133 84.9128L54.5646 83.4375L42.2415 77.7949Z" stroke="#263238" stroke-width="0.7" stroke-linecap="round" stroke-linejoin="round"/>
<path d="M46.1992 113.035C46.1992 113.035 46.7413 113.907 48.2135 114.489" stroke="#263238" stroke-width="0.7" stroke-linecap="round" stroke-linejoin="round"/>
<path d="M55.4207 83.8225C55.4207 83.8225 53.9392 85.7721 53.6373 86.5113C52.9135 88.2946 52.2791 92.5481 49.7319 94.0265C49.2439 94.2932 48.8527 94.7071 48.6139 95.2092C47.3819 97.9812 43.3286 106.682 39.7619 109.904C35.4992 113.754 31.2334 110.776 30.3033 108.45C29.3731 106.125 29.4439 103.926 29.0713 101.04C28.4553 96.4197 28.1473 86.1479 27.1309 82.224C27.1309 82.224 30.5435 80.918 31.7847 82.9508C31.7847 82.9508 35.3483 91.5964 35.6594 95.3016C35.6594 95.3016 36.6665 92.1046 36.6665 89.1262C36.6665 86.1479 35.3483 80.6994 42.2475 77.7949L55.4207 83.8225Z" fill="white" stroke="#263238" stroke-width="0.7" stroke-linecap="round" stroke-linejoin="round"/>
<path d="M55.4223 83.8225L42.243 77.7949C35.3438 80.6963 36.6528 86.1479 36.6528 89.1262C36.6048 91.0075 36.3255 92.8757 35.8212 94.6887C35.9013 96.164 35.9691 98.4463 35.7227 99.8785C35.7227 99.8785 40.1917 102.795 43.8354 104.499C45.6034 101.496 47.1963 98.3929 48.6063 95.2062C48.8451 94.704 49.2364 94.2901 49.7243 94.0234C52.2715 92.545 52.906 88.2916 53.6298 86.5082C53.9409 85.7721 55.4223 83.8225 55.4223 83.8225Z" fill="#F87D4E" stroke="#263238" stroke-width="0.7" stroke-linecap="round" stroke-linejoin="round"/>
<path d="M35.7278 100.75C35.7278 100.75 35.4198 103.658 34.1016 105.472" stroke="#263238" stroke-width="0.7" stroke-linecap="round" stroke-linejoin="round"/>
<path d="M33.3281 110.572C33.9655 109.9 34.8129 109.465 35.7305 109.34" stroke="#263238" stroke-width="0.7" stroke-linecap="round" stroke-linejoin="round"/>
<path d="M32.9833 85.7045C32.4628 85.5967 31.5604 84.9037 31.8961 84.0413C32.2318 83.1789 28.6251 83.3852 28.5081 82.5998C28.3911 81.8144 27.7843 84.2199 26.8203 83.6532C26.1858 83.2774 26.0934 82.4027 26.3644 81.3586C26.5061 80.8227 26.888 80.2375 26.7001 79.6554C26.155 77.9244 21.7105 73.3506 23.0996 71.8137C23.8789 70.9482 28.2063 74.6349 31.9885 77.832C34.9114 80.296 37.551 82.2487 37.2676 82.7261C36.9103 83.3206 35.5551 83.4992 34.7328 84.1029C33.8026 84.7836 33.7041 85.8523 32.9833 85.7045Z" fill="#F87D4E" stroke="#263238" stroke-width="0.7" stroke-linecap="round" stroke-linejoin="round"/>
<path d="M23.0996 71.8129C23.8788 70.9474 28.2062 74.6342 31.9885 77.8312C34.9114 80.2952 37.551 82.248 37.2676 82.7254C37.2676 82.7254 37.9236 82.171 37.939 81.7028C37.939 81.7028 36.8888 80.2768 33.319 77.6372C29.7493 74.9976 30.008 74.4432 25.6837 71.3294C25.6837 71.3294 23.9497 70.2883 23.0996 71.8129Z" fill="white" stroke="#263238" stroke-width="0.7" stroke-linecap="round" stroke-linejoin="round"/>
<path d="M43.3301 53.312C43.3301 53.312 43.2531 60.4299 43.8722 65.515C44.4913 70.6 43.7182 73.7971 40.8477 78.2292C45.3762 81.1655 50.3133 83.4176 55.4992 84.9128C55.4992 84.9128 60.6952 72.3464 60.9262 67.1135C61.8592 63.1157 61.2499 58.913 59.2199 55.3448C55.8103 49.462 51.0024 48.2269 48.369 49.1694C45.7356 50.1119 43.1977 51.6611 43.3301 53.312Z" fill="#263238" stroke="#263238" stroke-width="0.7" stroke-linecap="round" stroke-linejoin="round"/>
<path d="M61.2337 61.0849C60.9572 59.0614 60.2886 57.1113 59.2656 55.3438" stroke="#7F7F7F" stroke-width="0.7" stroke-linecap="round" stroke-linejoin="round"/>
<path d="M53.7249 45.085C53.0252 43.6314 52.5179 42.0928 52.2157 40.5081C51.843 38.2197 53.4046 38.155 53.4046 38.155C53.4046 38.155 53.1674 36.4548 55.1201 35.768C57.0728 35.0812 59.9342 36.2916 61.7852 35.152C63.6363 34.0124 62.5398 35.9035 62.5398 35.9035C62.5398 35.9035 64.434 34.4344 64.7482 34.5299C65.0624 34.6253 64.2616 36.9507 64.2616 36.9507C64.2616 36.9507 64.8529 35.9374 65.204 36.1007C65.5552 36.2639 64.1784 38.5862 63.7503 39.926C63.3222 41.2658 60.1097 44.3058 60.1097 44.3058L57.3901 47.5737L55.576 46.8899L53.7249 45.085Z" fill="#263238" stroke="#263238" stroke-width="0.7" stroke-linecap="round" stroke-linejoin="round"/>
<path d="M53.899 46.1995C53.899 46.1995 53.2491 49.1625 52.2266 49.643C52.2266 49.643 55.7593 54.9282 58.3188 54.263C59.3106 54.0042 57.481 53.647 59.5754 50.7764C61.6698 47.9059 54.2717 45.7129 54.2717 45.7129L53.899 46.1995Z" fill="white"/>
<path d="M57.1616 46.3965C57.023 46.5936 56.8351 46.6028 56.4593 46.3965H54.0508C54.2616 46.6036 54.5179 46.7587 54.7992 46.8492C54.7992 46.8492 54.9471 49.8769 57.6544 51.3029C60.3617 52.729 61.1348 52.4918 62.0957 51.0873C62.9085 49.7843 63.4831 48.3472 63.7928 46.8431C63.8245 46.6873 63.8785 46.5369 63.953 46.3965H57.1616Z" fill="#263238" stroke="#263238" stroke-width="0.7" stroke-linecap="round" stroke-linejoin="round"/>
<path d="M53.899 46.1995C53.899 46.1995 53.2491 49.1625 52.2266 49.643C52.2266 49.643 55.7593 54.9282 58.3188 54.263C59.3106 54.0042 57.481 53.647 59.5754 50.7764C61.6698 47.9059 54.2717 45.7129 54.2717 45.7129L53.899 46.1995Z" stroke="#263238" stroke-width="0.7" stroke-linecap="round" stroke-linejoin="round"/>
<path d="M55.9364 44.888C55.9364 44.888 55.7947 43.964 54.3964 43.887C52.9981 43.81 52.9088 47.0686 55.1664 47.3304C55.1664 47.3304 56.0257 50.2502 59.001 51.0788C61.9763 51.9073 62.6755 51.513 63.2822 49.9453C63.7652 48.4993 63.9853 46.9784 63.9321 45.4547C63.8859 44.6693 64.6312 43.7114 64.351 42.578C64.0707 41.4445 63.735 39.9199 63.735 39.9199C63.735 39.9199 63.4085 41.4014 61.9671 41.4445C60.5256 41.4876 57.8275 40.4866 57.5472 40.9209C57.267 41.3552 59.2659 42.8398 58.8932 43.274C58.5205 43.7083 57.501 44.5399 57.4548 45.4978C57.4086 46.4557 57.4087 46.7637 56.6633 46.545C56.1428 46.3879 55.9364 44.888 55.9364 44.888Z" fill="white" stroke="#263238" stroke-width="0.7" stroke-linecap="round" stroke-linejoin="round"/>
<path d="M63.7814 44.8047C63.6982 45.3837 64.1171 46.819 64.3235 47.4812C64.335 47.5219 64.3369 47.5646 64.3289 47.6061C64.321 47.6476 64.3034 47.6867 64.2777 47.7202C64.252 47.7537 64.2187 47.7808 64.1807 47.7992C64.1427 47.8176 64.1008 47.8268 64.0586 47.8262C63.7044 47.8262 63.1993 47.8816 63.0453 48.0264C62.9775 48.088 62.9868 48.3682 62.9868 48.3682" fill="white"/>
<path d="M63.7814 44.8047C63.6982 45.3837 64.1171 46.819 64.3235 47.4812C64.335 47.5219 64.3369 47.5646 64.3289 47.6061C64.321 47.6476 64.3034 47.6867 64.2777 47.7202C64.252 47.7537 64.2187 47.7808 64.1807 47.7992C64.1427 47.8176 64.1008 47.8268 64.0586 47.8262C63.7044 47.8262 63.1993 47.8816 63.0453 48.0264C62.9775 48.088 62.9868 48.3682 62.9868 48.3682" stroke="#263238" stroke-width="0.7" stroke-linecap="round" stroke-linejoin="round"/>
<path d="M62.263 45.4423C62.2291 45.6763 62.0905 45.855 61.955 45.8365C61.8195 45.818 61.7333 45.6147 61.7671 45.3807C61.801 45.1466 61.9365 44.9679 62.0751 44.9833C62.2137 44.9987 62.2969 45.2051 62.263 45.4423Z" fill="#263238"/>
<path d="M61.1562 44.4848C61.1562 44.4848 61.7045 43.5238 62.7887 44.1953" stroke="#263238" stroke-width="0.7" stroke-linecap="round" stroke-linejoin="round"/>
<path d="M62.7022 48.8602C62.7022 48.8602 62.0585 49.2637 60.7402 48.4629" stroke="#263238" stroke-width="0.7" stroke-linecap="round" stroke-linejoin="round"/>
<path d="M54.7714 38.651C54.7714 38.651 54.5927 36.6397 56.6902 36.766C58.7877 36.8923 61.1316 37.6223 63.6602 35.6973" stroke="#7F7F7F" stroke-width="0.7" stroke-linecap="round" stroke-linejoin="round"/>
<path d="M64.2611 36.9609C64.2611 36.9609 63.0291 39.5512 61.332 40.3489" stroke="#7F7F7F" stroke-width="0.7" stroke-linecap="round" stroke-linejoin="round"/>
<path d="M63.6598 36.5957C63.6598 36.5957 62.0798 38.6501 58.4238 38.6501" stroke="#7F7F7F" stroke-width="0.7" stroke-linecap="round" stroke-linejoin="round"/>
<path d="M25.6757 71.0149C25.6757 71.0149 29.0637 59.6189 30.0554 56.579C31.1581 53.191 34.4136 53.3111 42.166 50.6962C49.9183 48.0813 51.5107 49.0607 52.5086 50.0401C53.5065 51.0196 54.7262 56.7237 46.1977 57.8141C37.6692 58.9044 35.7257 59.5573 35.7257 59.5573C35.7257 59.5573 33.0646 63.7954 32.0821 65.7173C31.3182 67.2296 28.9035 72.2562 28.9035 72.2562C29.0532 73.0937 29.2705 73.9178 29.5534 74.7202C30.0616 76.14 30.9579 77.8002 30.4558 77.8002C28.8912 77.8002 29.5996 76.4634 28.4661 76.1308C27.3327 75.7982 28.0688 78.1421 26.7044 79.6605C26.7044 79.6605 25.5709 79.7221 25.7249 78.7057C25.7249 78.7057 24.9457 78.7704 24.8718 77.449C24.7489 77.4288 24.6313 77.3839 24.5262 77.3171C24.4211 77.2503 24.3305 77.1629 24.26 77.0602C24.1895 76.9574 24.1406 76.8415 24.116 76.7194C24.0915 76.5973 24.0919 76.4715 24.1172 76.3495C23.9294 76.2598 23.7705 76.1194 23.6584 75.9442C23.5462 75.7689 23.4854 75.5658 23.4827 75.3577C23.4827 74.6339 23.4088 73.6791 25.6757 71.0149Z" fill="white" stroke="#263238" stroke-width="0.7" stroke-linecap="round" stroke-linejoin="round"/>
<path d="M52.5079 50.0401C51.51 49.0607 49.9176 48.0813 42.1653 50.6962C40.8655 51.1335 39.7013 51.4939 38.6387 51.8081C39.2054 52.8799 40.4251 55.5595 40.3296 58.6487C41.808 58.4116 43.7176 58.1313 46.197 57.8141C54.7255 56.7237 53.5397 51.0596 52.5079 50.0401Z" fill="#263238" stroke="#263238" stroke-width="0.7" stroke-linecap="round" stroke-linejoin="round"/>
<path d="M36.0138 58.0332C36.094 58.5638 35.9943 59.1059 35.7305 59.5732" stroke="#263238" stroke-width="0.7" stroke-linecap="round" stroke-linejoin="round"/>
<path d="M52.7969 53.6379C52.8911 53.3437 52.9531 53.0401 52.9817 52.7324" stroke="#7F7F7F" stroke-width="0.7" stroke-linecap="round" stroke-linejoin="round"/>
<path d="M44.1055 58.0331L45.975 57.7867C49.7111 57.3093 51.5837 55.9387 52.4215 54.4941" stroke="#7F7F7F" stroke-width="0.7" stroke-linecap="round" stroke-linejoin="round"/>
<path d="M44.043 66.6719C44.3325 69.0461 44.9097 71.3762 45.7616 73.6111" stroke="#7F7F7F" stroke-width="0.7" stroke-linecap="round" stroke-linejoin="round"/>
<path d="M47.9336 60.5137C48.3402 61.9674 49.9264 62.8021 51.4294 62.9315C52.9324 63.0608 54.4232 62.6574 55.92 62.488C57.4169 62.3186 59.0709 62.4356 60.2166 63.412" stroke="#7F7F7F" stroke-width="0.7" stroke-linecap="round" stroke-linejoin="round"/>
</svg>
